<svg width="56" height="36" viewBox="0 0 56 36" fill="none" xmlns="http://www.w3.org/2000/svg">
<g clipPath="url(#clip0_3199_9907)">
<path fill-rule="evenodd" clip-rule="evenodd" d="M10.6988 34.8295H11.9539V28.3249H10.5236L8.42201 31.137L6.32033 28.3249H4.86084V34.8295H6.14519V30.1144L8.27604 32.9548H8.50957L10.6988 30.1144V34.8295ZM46.106 28.2965H44.5881V28.3533L47.186 32.1311V34.8295H48.4412V32.1311L51.0975 28.3533V28.2965H49.5796L47.799 30.9949L46.106 28.2965ZM44.4714 34.7443L42.4281 32.5288C43.7124 32.2731 44.1211 31.3642 44.1211 30.4837C44.1211 29.3475 43.3037 28.3249 41.7275 28.2965C40.6475 28.3249 39.5967 28.2965 38.5167 28.2965V34.8295H39.801V32.6708H40.9978L42.9535 34.8295H44.4714V34.7443ZM41.7275 29.4611C42.5156 29.4611 42.8659 29.9724 42.8659 30.5121C42.8659 31.0234 42.5156 31.563 41.7275 31.563H39.801V29.4611H41.7275ZM37.5534 33.6365H33.7879V32.1595H37.4075V31.0234H33.7879V29.4895H37.5534V28.2965H32.5328C32.5328 30.4837 32.5328 32.6708 32.5328 34.8295H37.5534V33.6365ZM28.3878 34.8295H29.643V29.4327H31.7738V28.2965C29.8473 28.2965 28.1835 28.2965 26.257 28.2965V29.4327H28.3878V34.8295ZM25.4688 29.4043C24.9726 28.3817 23.8926 28.0977 22.8418 28.0977C21.5866 28.0977 20.2439 28.6657 20.2439 30.0007C20.2439 31.4494 21.499 31.8187 22.871 31.9607C23.7758 32.0743 24.418 32.3299 24.418 32.9264C24.418 33.6365 23.6883 33.9206 22.871 33.9206C22.0828 33.9206 21.2947 33.5798 21.0028 32.8696L19.952 33.4093C20.4482 34.6023 21.499 34.9999 22.871 34.9999C24.3596 34.9999 25.6731 34.3751 25.6731 32.9264C25.6731 31.3642 24.3888 31.0234 22.9877 30.8529C22.1704 30.7677 21.4698 30.5973 21.4698 30.0292C21.4698 29.5463 21.9369 29.177 22.871 29.177C23.6006 29.177 24.2428 29.5179 24.4764 29.8871L25.4688 29.4043ZM18.4633 34.8295H19.8644L16.8578 28.2965H15.4567L12.4502 34.8295H13.8221L14.4059 33.6082H17.9087L18.4633 34.8295ZM17.4124 32.472H14.9021L16.1573 29.6883L17.4124 32.472Z" fill="white"/>
<path fill-rule="evenodd" clip-rule="evenodd" d="M43.8876 7.64666C42.2238 4.35173 38.6918 3.41438 35.2766 3.41438C33.6712 3.41438 32.0073 3.72683 30.5771 4.32332V1C26.5197 1 23.4255 1 19.4265 1V5.20387H25.9067V14.7762C25.9067 18.412 25.031 21.2524 20.8277 21.2524C17.1206 21.2524 15.1065 19.6334 14.6686 16.4236H10.0566C10.6404 22.3318 14.9606 25.5131 20.8277 25.5131C23.8926 25.5131 25.2937 24.5757 27.1326 22.9851C29.0008 25.2006 31.8614 26.0243 35.3642 26.0243C40.2389 26.0243 44.5589 23.9792 44.5589 19.2357C44.5589 14.1513 40.2973 12.9867 35.7437 12.447C33.1165 12.1345 30.8398 11.6233 30.8398 9.7486C30.8398 8.15791 32.3284 6.90812 35.3933 6.90812C37.7577 6.90812 39.8302 8.07274 40.5892 9.29413L43.8876 7.64666ZM30.5771 15.0318C31.9781 15.5999 33.642 15.884 35.3933 16.0828C38.3123 16.3953 40.4724 17.219 40.4724 19.2357C40.4724 21.5365 38.0205 22.4454 35.4226 22.4454C32.9998 22.4454 30.723 21.5932 29.5846 19.6901C30.1976 18.2983 30.5187 16.7361 30.5771 15.0318Z" fill="white"/>
<path fill-rule="evenodd" clip-rule="evenodd" d="M45.697 25.7971C49.9587 26.564 51.9437 24.7177 51.9437 21.1672V17.219C51.9437 16.1396 52.148 14.8614 53.9869 14.8614V12.305C52.148 12.305 51.9437 10.9984 51.9437 9.9474V5.99918C51.9437 2.42022 49.9587 0.60233 45.697 1.36925V4.03928C47.5652 3.5564 48.2657 4.2097 48.2657 6.16961V9.9474C48.2657 11.6233 48.1198 12.9867 50.2798 13.5832C48.1198 14.1797 48.2657 15.5715 48.2657 17.219V20.9968C48.2657 22.9566 47.8279 23.3543 45.697 23.1271V25.7971Z" fill="white"/>
<path fill-rule="evenodd" clip-rule="evenodd" d="M10.2899 25.7971C6.02819 26.564 4.0141 24.7177 4.0141 21.1672V17.219C4.0141 16.1396 3.80976 14.8614 2 14.8614V12.305C3.80976 12.305 4.0141 10.9984 4.0141 9.9474V5.99918C4.0141 2.42022 6.02819 0.60233 10.2899 1.36925V4.03928C8.42177 3.5564 7.7212 4.2097 7.7212 6.16961V9.9474C7.7212 11.6233 7.86714 12.9867 5.7071 13.5832C7.86714 14.1797 7.7212 15.5715 7.7212 17.219V20.9968C7.7212 22.9566 8.15903 23.3543 10.2899 23.1271V25.7971Z" fill="white"/>
</g>
<defs>
<clipPath id="clip0_3199_9907">
<rect width="52" height="34" fill="white" transform="translate(2 1)"/>
</clipPath>
</defs>
</svg>
